<svg width="614" height="116" viewBox="0 0 614 116" fill="none" xmlns="http://www.w3.org/2000/svg">
<path d="M124.752 3.08219L88.4239 79.7687L49.7765 3.08219H0L58.1249 113.014H116.404L170.354 3.08219H124.752Z" fill="currentColor"/>
<path fill-rule="evenodd" clip-rule="evenodd" d="M143.902 113.014L200.651 3.08219H259.557L319.547 113.014H271.586L262.641 95.2842H197.104L188.312 113.014H143.902ZM248.609 67.7992L229.332 29.9734L210.516 67.7992H248.609Z" fill="currentColor"/>
<path d="M397.948 115.068H383.975C337.497 115.068 314.256 101.933 314.256 75.6689V74.1752H362.167C362.987 84.6227 372.508 89.8465 390.73 89.8465H392.115C397.948 89.8465 402.808 89.5723 406.702 89.0268C410.59 88.4784 413.458 87.6816 415.3 86.6362C417.143 85.5938 418.395 84.4999 419.064 83.3546C419.726 82.2122 420.058 80.8898 420.058 79.3989V79.2504C420.058 77.1626 419.523 75.4975 418.45 74.2494C417.372 73.007 414.812 71.9132 410.769 70.9678C406.722 70.0224 400.866 69.4484 393.187 69.2513L371.997 68.6544C334.629 67.6576 315.946 56.5161 315.946 35.224V33.8788C315.946 30.0002 316.507 26.4901 317.635 23.3599C318.761 20.2239 320.809 17.165 323.78 14.1804C326.748 11.193 330.636 8.70818 335.449 6.71464C340.26 4.72681 346.584 3.11312 354.415 1.86502C362.246 0.622625 371.327 0 381.671 0H395.335C441.607 0 464.745 11.6928 464.745 35.0726V36.2665H417.295C416.376 28.4094 407.163 24.4766 389.658 24.4766H388.118C380.954 24.4766 375.426 24.9021 371.535 25.7475C367.645 26.5901 365.238 27.5383 364.318 28.5808C363.395 29.6261 362.937 30.9942 362.937 32.6849V32.8335C362.937 34.5271 363.475 35.9209 364.55 37.0148C365.623 38.1115 368.053 39.0797 371.841 39.9222C375.629 40.7705 380.954 41.2418 387.812 41.3417L408.391 41.7901C429.987 42.387 445.447 45.2945 454.766 50.5183C464.078 55.7449 468.739 63.9761 468.739 75.2205V77.3083C468.739 81.3896 468.224 85.0968 467.202 88.4299C466.179 91.7629 464.131 95.1445 461.063 98.5775C457.989 102.011 453.919 104.895 448.853 107.234C443.787 109.571 436.925 111.464 428.274 112.904C419.623 114.346 409.517 115.068 397.948 115.068Z" fill="currentColor"/>
<path d="M521.061 113.014V33.0746H471.913V3.08219H613.699V33.0746H564.548V113.014H521.061Z" fill="currentColor"/>
</svg>
